<svg xmlns="http://www.w3.org/2000/svg" version="1.1" xmlns:xlink="http://www.w3.org/1999/xlink" xmlns:svgjs="http://svgjs.dev/svgjs" width="1500" height="1235" viewBox="0 0 1500 1235"><g transform="matrix(1,0,0,1,0.621039844403299,0.5)"><svg viewBox="0 0 300 247" data-background-color="#ffffff" preserveAspectRatio="xMidYMid meet" height="1235" width="1500" xmlns="http://www.w3.org/2000/svg" xmlns:xlink="http://www.w3.org/1999/xlink"><g id="tight-bounds" transform="matrix(1,0,0,1,-0.12420796888065411,-0.09999999999999432)"><svg viewBox="0 0 300.2484159377613 247.2" height="247.2" width="300.2484159377613"><g><svg viewBox="0 0 395.52 325.6388337458118" height="247.2" width="300.2484159377613"><g transform="matrix(1,0,0,1,0,241.1467703444124)"><svg viewBox="0 0 395.52 84.4920634013994" height="84.4920634013994" width="395.52"><g id="textblocktransform"><svg viewBox="0 0 395.52 84.4920634013994" height="84.4920634013994" width="395.52" id="textblock"><g><svg viewBox="0 0 395.52 84.4920634013994" height="84.4920634013994" width="395.52"><g transform="matrix(1,0,0,1,0,0)"><svg width="395.52" viewBox="1.17 -36.04 170.96 36.53" height="84.4920634013994" data-palette-color="#84bff5"><path d="M24.78-35.55L31.49-8.79 36.96-35.55 43.09-35.55 34.89 0 28.98 0 22.22-25.95 15.31 0 9.38 0 1.17-35.55 7.3-35.55 12.82-8.84 19.6-35.55 24.78-35.55ZM57.91 0.49L57.91 0.49Q52.27 0.49 48.76-3.06 45.26-6.62 45.26-12.52L45.26-12.52 45.26-13.26Q45.26-17.21 46.79-20.32 48.31-23.44 51.07-25.17 53.83-26.9 57.22-26.9L57.22-26.9Q62.62-26.9 65.56-23.46 68.5-20.02 68.5-13.72L68.5-13.72 68.5-11.33 51.24-11.33Q51.51-8.06 53.43-6.15 55.34-4.25 58.25-4.25L58.25-4.25Q62.33-4.25 64.89-7.54L64.89-7.54 68.09-4.49Q66.5-2.12 63.85-0.82 61.2 0.49 57.91 0.49ZM57.2-22.14L57.2-22.14Q54.76-22.14 53.26-20.43 51.76-18.73 51.34-15.67L51.34-15.67 62.64-15.67 62.64-16.11Q62.45-19.09 61.06-20.62 59.67-22.14 57.2-22.14ZM94.65-11.57L100.8-11.57Q100.26-5.88 96.6-2.7 92.94 0.49 86.86 0.49L86.86 0.49Q82.61 0.49 79.38-1.53 76.14-3.54 74.38-7.25 72.63-10.96 72.55-15.87L72.55-15.87 72.55-19.19Q72.55-24.22 74.34-28.05 76.12-31.88 79.45-33.96 82.78-36.04 87.15-36.04L87.15-36.04Q93.04-36.04 96.63-32.84 100.21-29.64 100.8-23.8L100.8-23.8 94.65-23.8Q94.21-27.64 92.41-29.33 90.62-31.03 87.15-31.03L87.15-31.03Q83.12-31.03 80.96-28.09 78.8-25.15 78.75-19.46L78.75-19.46 78.75-16.31Q78.75-10.55 80.82-7.52 82.88-4.49 86.86-4.49L86.86-4.49Q90.5-4.49 92.33-6.13 94.16-7.76 94.65-11.57L94.65-11.57ZM127.58 0L121.53 0Q121.14-0.76 120.84-2.47L120.84-2.47Q118.01 0.49 113.91 0.49L113.91 0.49Q109.93 0.49 107.41-1.78 104.9-4.05 104.9-7.4L104.9-7.4Q104.9-11.62 108.04-13.88 111.17-16.14 117.01-16.14L117.01-16.14 120.65-16.14 120.65-17.87Q120.65-19.92 119.5-21.15 118.35-22.39 116.01-22.39L116.01-22.39Q113.98-22.39 112.69-21.37 111.39-20.36 111.39-18.8L111.39-18.8 105.46-18.8Q105.46-20.97 106.9-22.86 108.34-24.76 110.82-25.83 113.3-26.9 116.35-26.9L116.35-26.9Q120.99-26.9 123.75-24.57 126.51-22.24 126.58-18.02L126.58-18.02 126.58-6.1Q126.58-2.54 127.58-0.42L127.58-0.42 127.58 0ZM115.01-4.27L115.01-4.27Q116.76-4.27 118.32-5.13 119.87-5.98 120.65-7.42L120.65-7.42 120.65-12.4 117.45-12.4Q114.15-12.4 112.49-11.25 110.83-10.11 110.83-8.01L110.83-8.01Q110.83-6.3 111.97-5.29 113.1-4.27 115.01-4.27ZM146.65-26.56L146.62-21Q145.45-21.19 144.2-21.19L144.2-21.19Q140.13-21.19 138.71-18.07L138.71-18.07 138.71 0 132.78 0 132.78-26.42 138.44-26.42 138.59-23.46Q140.74-26.9 144.55-26.9L144.55-26.9Q145.82-26.9 146.65-26.56L146.65-26.56ZM161.54 0.49L161.54 0.49Q155.9 0.49 152.39-3.06 148.89-6.62 148.89-12.52L148.89-12.52 148.89-13.26Q148.89-17.21 150.41-20.32 151.94-23.44 154.7-25.17 157.46-26.9 160.85-26.9L160.85-26.9Q166.25-26.9 169.19-23.46 172.13-20.02 172.13-13.72L172.13-13.72 172.13-11.33 154.87-11.33Q155.14-8.06 157.06-6.15 158.97-4.25 161.88-4.25L161.88-4.25Q165.95-4.25 168.52-7.54L168.52-7.54 171.72-4.49Q170.13-2.12 167.48-0.82 164.83 0.49 161.54 0.49ZM160.83-22.14L160.83-22.14Q158.39-22.14 156.88-20.43 155.38-18.73 154.97-15.67L154.97-15.67 166.27-15.67 166.27-16.11Q166.08-19.09 164.68-20.62 163.29-22.14 160.83-22.14Z" opacity="1" transform="matrix(1,0,0,1,0,0)" fill="#84bff5" class="wordmark-text-0" data-fill-palette-color="primary" id="text-0"></path></svg></g></svg></g></svg></g></svg></g><g transform="matrix(1,0,0,1,87.12916630465179,0)"><svg viewBox="0 0 221.2616673906964 221.20022198486365" height="221.20022198486365" width="221.2616673906964"><g><svg xmlns:dc="http://purl.org/dc/elements/1.1/" xmlns:cc="http://creativecommons.org/ns#" xmlns:rdf="http://www.w3.org/1999/02/22-rdf-syntax-ns#" xmlns:svg="http://www.w3.org/2000/svg" xmlns="http://www.w3.org/2000/svg" xmlns:sodipodi="http://sodipodi.sourceforge.net/DTD/sodipodi-0.dtd" xmlns:inkscape="http://www.inkscape.org/namespaces/inkscape" version="1.1" x="0" y="0" viewBox="2.5 2.5 123.0341671669658 123" enable-background="new 0 0 128 128" xml:space="preserve" height="221.20022198486365" width="221.2616673906964" class="icon-icon-0" data-fill-palette-color="accent" id="icon-0"><path d="M59.699 2.5C44.699 2.5 32.5 14.699 32.5 29.699 32.5 37.899 36.1 45.499 42.4 50.699L42.5 50.801 78 78.9C78.3 79.1 78.6 79.199 78.9 79.199 79.2 79.199 79.601 79.1 79.801 78.9L114.699 51.4 114.9 51.199C121.6 45.999 125.4 38.201 125.4 29.801 125.5 14.701 113.301 2.5 98.301 2.5 91.001 2.5 84.1 5.4 79 10.6 73.9 5.5 66.999 2.5 59.699 2.5zM59.699 5.5C66.599 5.5 73.2 8.499 77.9 13.699 78.5 14.299 79.599 14.299 80.199 13.699 84.799 8.499 91.4 5.5 98.4 5.5 111.8 5.5 122.6 16.399 122.6 29.699 122.5 37.299 119 44.3 112.9 49 112.8 49.1 112.699 49.099 112.699 49.199L79 75.801 44.5 48.6 44.4 48.5C38.7 43.9 35.5 36.999 35.5 29.699 35.5 16.299 46.399 5.5 59.699 5.5zM5 74.699C4.4 74.699 3.801 74.8 3.301 75.1 2.801 75.4 2.5 75.9 2.5 76.4L2.5 76.6 2.5 76.9C2.5 91.1 6.5 105 14.1 117.1 14.4 117.6 14.8 117.9 15.4 117.9L22.6 117.9C25.3 117.9 27.5 116 27.9 113.4L61.4 124C61.6 124.1 66.4 125.5 72 125.5 75.4 125.5 78.301 125 80.801 124 87.401 121.3 113.901 107.1 121.801 102.9 123.901 101.8 126.6 98.601 125.1 94.801 124 92.101 122 90.699 119.1 90.699 118 90.699 116.801 90.901 115.301 91.301L93.4 98.9 93.4 98.699 93.4 98.199 93.4 97.801 93.4 97.699 93.4 97.301 93.4 97 93.4 96.9 93.4 96.699C93.4 96.499 93.301 96.2 93.301 96L93.301 95.9 93.301 95.801C92.501 92.201 89.1 89.5 85.1 89.5L67.9 89.5C60.3 79.6 42.3 79.5 41.5 79.5L27.9 79.5C27.6 76.8 25.3 74.699 22.5 74.699L5 74.699zM5.5 77.801L22.6 77.801C23.9 77.801 25 78.899 25 80.199L25 81 25 111.4 25 112.5C25 113.8 23.9 114.9 22.6 114.9L16.199 114.9C9.299 103.7 5.6 90.901 5.5 77.801zM28 82.5L41.5 82.5C41.7 82.5 59.6 82.6 65.9 91.9 66.2 92.3 66.6 92.6 67.1 92.6L85 92.6C87.8 92.6 90.101 94.599 90.301 97.199L90.301 97.4 90.301 97.9C90.301 98.1 90.299 98.3 90.199 98.6 90.199 98.7 90.2 98.8 90.1 98.9 90 99.1 90 99.3 89.9 99.6 89.9 99.7 89.801 99.801 89.801 99.801 89.001 101.601 87.2 102.9 85.1 102.9L59.1 102.9C58.3 102.9 57.6 103.6 57.6 104.4 57.6 105.2 58.3 105.9 59.1 105.9L85.1 105.9C87.7 105.9 90.1 104.599 91.5 102.699L115.9 94.199C117 93.899 118.001 93.699 118.801 93.699 120.501 93.699 121.4 94.3 122.1 95.9 122.9 97.9 121.199 99.699 120.199 100.199 112.299 104.499 85.9 118.499 79.5 121.199 77.4 122.099 74.8 122.5 71.9 122.5 66.8 122.5 62.199 121.199 62.199 121.199L28 110.301 28 82.5z" fill="#0d5ca5" data-fill-palette-color="accent"></path></svg></g></svg></g><g></g></svg></g><defs></defs></svg><rect width="300.2484159377613" height="247.2" fill="none" stroke="none" visibility="hidden"></rect></g></svg></g></svg>